<?xml version="1.0" standalone="no"?>
<!DOCTYPE svg PUBLIC "-//W3C//DTD SVG 20010904//EN"
 "http://www.w3.org/TR/2001/REC-SVG-20010904/DTD/svg10.dtd">
<svg version="1.0" xmlns="http://www.w3.org/2000/svg"
 width="300.000000pt" height="400.000000pt" viewBox="0 0 300.000000 400.000000"
 preserveAspectRatio="xMidYMid meet">
<metadata>
Created by potrace 1.10, written by Peter Selinger 2001-2011
</metadata>
<g transform="translate(0.000000,400.000000) scale(0.100000,-0.100000)"
fill="#000000" stroke="none">
<path d="M1487 3863 c-8 -16 1 -68 11 -66 6 2 9 -4 6 -12 -4 -10 -11 -12 -22
-6 -15 8 -40 13 -137 26 -16 2 -41 7 -54 11 -17 5 -22 4 -17 -4 11 -19 -3 -14
-38 13 -35 26 -56 32 -56 15 0 -11 17 -20 44 -24 21 -3 29 -13 21 -25 -4 -7
-18 -6 -43 4 -20 9 -42 13 -49 11 -7 -3 -13 1 -13 8 0 19 -32 30 -41 14 -5 -8
-35 -12 -93 -11 -48 1 -89 -3 -92 -8 -3 -5 -16 -9 -30 -9 -13 0 -24 -6 -25
-12 0 -7 -4 -4 -9 7 -7 16 -9 17 -9 3 -1 -9 -7 -18 -13 -20 -10 -4 -9 -8 2
-19 17 -17 26 -17 60 0 23 11 23 11 2 7 -12 -2 -19 0 -16 5 8 14 95 3 105 -13
4 -7 11 -9 15 -5 4 3 1 14 -7 23 -13 16 -12 16 7 6 12 -6 25 -8 29 -4 5 4 5 1
1 -5 -4 -7 -2 -13 3 -13 6 0 14 0 19 0 4 0 7 6 7 13 0 6 8 11 18 11 9 -1 14 3
11 8 -4 6 2 8 12 6 12 -2 18 -11 17 -23 -1 -20 -1 -20 12 -1 12 15 17 17 29 7
8 -7 19 -10 25 -7 5 4 16 0 24 -8 11 -11 17 -12 27 -3 10 9 11 9 6 0 -6 -10
-1 -11 19 -3 34 13 72 13 80 0 3 -5 0 -7 -8 -4 -8 3 -17 1 -21 -4 -3 -5 4 -8
16 -7 11 1 24 9 29 18 11 19 43 11 35 -9 -3 -7 -1 -16 5 -19 5 -4 8 -1 7 5 -2
8 14 12 44 14 27 1 44 -3 41 -8 -4 -5 1 -7 10 -3 9 3 26 -4 41 -18 15 -14 33
-22 41 -19 8 4 15 1 15 -5 0 -6 3 -10 8 -9 10 2 62 -20 62 -27 0 -4 -4 -3 -10
0 -5 3 -10 -1 -10 -10 0 -9 4 -14 9 -11 5 4 12 0 14 -6 3 -8 6 -6 6 5 1 9 4
17 7 17 13 0 52 -49 45 -56 -3 -4 0 -4 8 1 12 7 11 10 -2 20 -10 7 -17 18 -17
25 0 8 4 9 13 3 6 -5 30 -11 52 -12 42 -2 65 -15 65 -38 0 -12 3 -12 16 1 17
18 39 22 29 6 -3 -6 1 -13 9 -16 9 -3 14 -10 11 -14 -3 -5 -1 -11 5 -15 5 -3
10 2 11 12 0 11 3 13 6 5 2 -6 9 -10 13 -7 5 3 11 1 15 -5 3 -5 -1 -10 -9 -10
-9 0 -16 -5 -16 -11 0 -5 4 -8 9 -5 5 4 11 1 13 -5 2 -7 19 -13 38 -15 19 -1
49 -7 65 -12 26 -8 30 -13 29 -43 -1 -19 0 -29 3 -23 7 21 44 3 41 -20 -2 -12
2 -20 8 -19 7 1 22 -13 35 -32 13 -19 28 -35 32 -35 5 0 5 5 2 10 -12 19 12
10 31 -12 10 -12 14 -18 7 -15 -6 4 -1 -14 13 -40 26 -52 30 -68 14 -58 -5 3
-10 1 -10 -4 0 -6 4 -11 9 -11 5 0 7 -10 3 -22 -3 -11 -1 -19 4 -16 5 4 9 -4
10 -15 0 -12 4 -30 8 -39 6 -14 3 -18 -10 -19 -11 0 -14 -3 -6 -6 6 -2 12 -20
12 -39 0 -19 5 -34 11 -34 6 0 8 9 4 23 -5 19 -5 20 5 4 8 -13 9 -22 1 -31 -6
-7 -7 -16 -3 -20 7 -8 9 -14 11 -47 0 -11 6 -17 11 -14 6 3 10 -1 10 -9 0 -9
-4 -16 -10 -16 -5 0 -10 -4 -10 -10 0 -5 6 -7 14 -4 20 8 27 -21 10 -43 -11
-14 -13 -15 -8 -2 7 22 -14 35 -22 14 -6 -13 -8 -14 -15 -3 -7 10 -9 10 -9 1
0 -7 -7 -13 -16 -13 -10 0 -14 5 -10 16 3 9 2 12 -4 9 -6 -4 -9 -14 -8 -22 2
-9 -3 -18 -11 -21 -10 -3 -12 0 -8 12 4 10 3 15 -3 11 -6 -3 -10 -14 -10 -23
-1 -20 -46 -56 -60 -47 -6 3 -10 1 -10 -5 0 -6 -7 -10 -16 -8 -20 4 -27 -12
-15 -31 7 -11 23 -5 78 32 82 55 143 69 173 42 27 -24 31 -17 19 30 -6 22 -11
49 -12 60 -1 11 -5 25 -9 31 -4 6 -12 35 -17 65 -5 30 -17 81 -26 114 -8 33
-13 75 -10 93 10 53 -26 116 -113 199 -42 40 -81 73 -86 73 -5 0 -6 3 -3 6 9
9 -37 44 -58 44 -11 0 -15 6 -10 19 3 12 0 21 -10 25 -10 3 -15 -1 -15 -12 -1
-15 -2 -15 -13 -1 -20 26 -148 98 -186 105 -78 13 -154 36 -169 50 -8 8 -21
13 -29 10 -8 -4 -11 -1 -8 5 4 6 1 9 -6 8 -20 -4 -77 28 -89 50 -22 43 -8 43
38 1 45 -43 45 -43 -6 11 -29 30 -49 58 -46 62 4 4 2 7 -4 7 -6 0 -13 -3 -15
-7z"/>
<path d="M793 3782 c-2 -10 -19 -27 -36 -37 -34 -19 -67 -50 -67 -61 0 -15
-71 -145 -109 -199 -23 -32 -41 -67 -41 -77 0 -10 -4 -18 -9 -18 -10 0 -18
-29 -25 -90 -3 -19 -9 -47 -15 -61 -5 -15 -7 -30 -3 -34 3 -3 1 -10 -7 -14
-16 -10 -31 -76 -26 -116 9 -71 22 -110 34 -107 9 2 11 -3 7 -14 -5 -14 -4
-15 9 -4 13 11 15 10 10 -1 -3 -8 4 -29 16 -48 18 -29 22 -32 30 -19 5 9 8 29
7 45 -1 15 2 62 6 103 5 41 8 81 7 88 -1 7 4 11 11 10 7 -2 13 4 13 12 0 8 -8
16 -18 18 -10 2 -17 0 -16 -5 4 -21 -2 -34 -13 -27 -7 4 -8 3 -4 -5 10 -16 -4
-112 -15 -105 -5 3 -9 15 -9 26 0 12 -3 18 -7 14 -10 -10 -11 -30 -1 -37 4 -3
2 -13 -5 -23 -11 -15 -12 -12 -10 21 1 21 5 50 8 65 6 24 5 26 -16 21 -24 -6
-24 -6 -5 15 11 12 14 22 8 22 -7 0 -12 7 -12 15 0 8 6 15 13 15 15 0 53 67
43 77 -4 4 -16 -3 -27 -17 -18 -23 -19 -23 -9 -2 6 12 7 22 3 22 -4 0 3 9 15
20 26 24 32 61 7 40 -8 -7 -15 -8 -15 -3 0 15 31 53 43 53 8 0 8 -3 -2 -9 -10
-6 -10 -10 -1 -16 17 -11 23 1 16 30 -4 15 -11 23 -17 19 -7 -4 -7 1 0 15 13
23 26 27 36 11 3 -5 12 -10 18 -10 8 0 7 3 -2 9 -11 7 -10 11 5 21 16 10 16
11 2 6 -35 -11 -18 28 32 75 28 26 46 50 41 53 -5 3 -11 1 -13 -6 -3 -8 -6 -9
-11 -1 -4 6 5 23 18 39 14 16 25 32 25 37 0 4 9 7 21 7 14 0 19 5 16 14 -3 8
5 18 19 25 13 6 24 15 24 21 0 16 -42 2 -62 -21 -31 -36 -39 -18 -8 19 22 26
80 37 80 15 0 -11 3 -11 14 -1 12 11 11 15 -8 25 -11 7 -16 12 -10 13 14 0 25
50 12 50 -6 0 -12 -8 -15 -18z"/>
<path d="M1026 3552 c-3 -5 11 -9 31 -10 20 -1 41 -6 47 -12 5 -5 15 -10 20
-10 6 0 1 7 -10 15 -26 17 -81 28 -88 17z"/>
<path d="M1528 3532 c-9 -11 -10 -14 0 -8 7 4 12 1 12 -8 0 -9 6 -13 13 -10
17 6 18 32 1 38 -7 3 -18 -3 -26 -12z"/>
<path d="M2064 3485 c-4 -8 -10 -12 -15 -9 -5 3 -9 -1 -9 -8 1 -19 39 -62 48
-54 4 4 -1 12 -10 17 -13 7 -15 16 -8 39 9 31 4 42 -6 15z"/>
<path d="M1785 3151 c-3 -6 7 -21 22 -35 32 -30 43 -18 16 18 -19 27 -29 31
-38 17z"/>
<path d="M1303 3122 c10 -15 -21 -23 -59 -16 -24 4 -38 1 -49 -10 -9 -9 -21
-14 -26 -11 -10 7 -13 -18 -3 -28 10 -9 66 22 59 33 -4 6 -1 10 5 10 7 0 9 -9
5 -22 -4 -13 -3 -18 2 -12 4 6 33 15 63 19 30 4 61 11 69 15 20 11 53 0 47
-16 -3 -8 1 -14 10 -14 8 0 13 -3 11 -7 -3 -5 10 -9 29 -11 l35 -2 -23 23
c-26 26 -73 47 -103 46 -11 0 -33 3 -49 7 -19 5 -27 3 -23 -4z"/>
<path d="M1078 3083 c-20 -5 -23 -19 -7 -29 6 -3 15 -1 19 6 4 7 14 10 22 7 9
-3 15 1 15 9 0 14 -15 16 -49 7z"/>
<path d="M997 3069 c-11 -6 -17 -20 -15 -32 1 -12 -1 -28 -5 -34 -6 -9 -3 -11
8 -7 10 4 15 14 12 25 -3 10 2 27 10 38 16 24 15 25 -10 10z"/>
<path d="M1060 2989 c0 -5 5 -7 11 -3 7 4 7 -1 -1 -16 -10 -18 -9 -21 2 -18
19 7 23 48 4 48 -9 0 -16 -5 -16 -11z"/>
<path d="M1930 3000 c-1 -3 -3 -30 -4 -60 -2 -30 -1 -47 1 -37 3 9 8 17 13 17
15 0 17 25 4 55 -7 17 -14 28 -14 25z"/>
<path d="M1023 2971 c-1 -9 1 -23 4 -31 4 -12 7 -11 13 5 13 30 12 42 -3 42
-8 0 -14 -7 -14 -16z"/>
<path d="M1240 2930 c-25 -5 -56 -13 -70 -19 l-25 -12 25 6 c14 3 49 8 78 12
28 3 52 10 52 14 0 5 -3 8 -7 8 -5 -1 -28 -5 -53 -9z"/>
<path d="M1310 2896 c41 -8 100 -24 130 -36 39 -15 51 -17 40 -7 -23 23 -107
48 -180 52 l-65 5 75 -14z"/>
<path d="M1211 2854 c8 -9 8 -14 1 -14 -39 0 -56 -74 -24 -103 26 -24 47 -21
72 11 17 20 21 36 17 65 -3 20 -3 37 0 37 16 0 129 -33 136 -39 10 -10 -4 -21
-73 -57 -30 -15 -57 -29 -59 -30 -1 -2 0 -7 3 -13 6 -8 62 12 76 28 13 15 70
41 70 32 0 -6 7 -11 15 -11 21 0 19 27 -2 39 -16 9 -15 10 7 11 34 1 14 12
-70 39 -75 25 -188 28 -169 5z m34 -45 c8 -13 -23 -49 -42 -49 -19 0 -27 28
-13 45 14 17 46 20 55 4z"/>
<path d="M561 2838 c-30 -78 -52 -185 -47 -219 7 -45 26 -89 38 -89 10 0 11
27 0 34 -5 3 -4 26 2 51 7 32 16 45 28 45 21 0 68 21 68 30 0 17 -45 19 -57 3
-7 -9 -13 -12 -13 -5 0 7 -5 12 -11 12 -5 0 -7 -6 -3 -12 4 -7 3 -9 -1 -5 -20
17 -7 85 14 73 4 -3 16 5 26 16 17 21 17 22 -1 35 -10 7 -22 13 -27 13 -4 0
-5 9 -2 20 9 28 -3 25 -14 -2z"/>
<path d="M2053 2828 c-25 -12 -30 -33 -10 -41 17 -7 47 16 47 37 0 18 -6 19
-37 4z"/>
<path d="M1960 2796 c0 -10 -5 -14 -11 -10 -7 4 -10 1 -7 -6 2 -8 10 -16 16
-18 17 -5 27 27 13 41 -8 8 -11 7 -11 -7z"/>
<path d="M2310 2780 c8 -5 22 -10 31 -10 25 0 69 -60 70 -94 0 -17 2 -40 4
-51 2 -11 -2 -58 -10 -103 -15 -83 -37 -129 -79 -164 -19 -16 -19 -18 -3 -18
18 0 47 22 47 35 0 4 7 13 15 21 8 9 15 12 15 8 0 -12 -41 -74 -50 -74 -4 0
-10 -14 -14 -32 -3 -18 -18 -45 -33 -60 -23 -24 -27 -40 -35 -125 -11 -119
-11 -106 -4 -173 3 -30 8 -82 10 -115 7 -79 24 -143 58 -208 5 -10 6 -22 3
-27 -4 -6 1 -10 9 -10 9 0 16 -9 16 -20 0 -11 5 -20 11 -20 6 0 9 -7 5 -15 -3
-9 3 -19 15 -25 11 -6 17 -15 14 -19 -5 -9 25 -25 32 -17 3 2 -13 35 -36 73
-72 122 -91 182 -106 337 -16 173 -14 213 19 311 14 43 26 82 26 87 0 5 14 26
31 47 95 118 110 428 22 462 -34 13 -103 12 -83 -1z"/>
<path d="M2257 2752 c-9 -10 -18 -29 -19 -43 -2 -18 2 -25 19 -27 21 -3 22 -1
12 28 -8 23 -8 34 1 45 18 21 6 19 -13 -3z"/>
<path d="M2020 2711 c-13 -33 -4 -133 11 -110 12 19 12 -3 -1 -35 -5 -14 -6
-26 -1 -26 5 0 11 14 15 31 9 45 7 61 -5 54 -6 -4 -5 2 3 14 9 15 10 23 1 32
-7 7 -8 21 -3 40 11 38 -4 38 -20 0z"/>
<path d="M1146 2694 c-3 -8 -16 -14 -30 -14 -14 0 -28 -4 -31 -10 -8 -13 -1
-13 49 2 51 14 63 24 37 31 -12 3 -22 -1 -25 -9z"/>
<path d="M765 2680 c9 -14 -13 -40 -42 -51 -13 -5 -23 -14 -23 -21 0 -9 3 -9
12 0 17 17 29 15 22 -3 -4 -8 -1 -15 6 -15 6 0 8 -4 5 -10 -3 -5 -21 -10 -39
-10 -22 0 -40 -8 -56 -25 -17 -18 -19 -25 -9 -25 8 0 19 4 25 9 5 6 17 4 29
-5 17 -12 18 -16 5 -24 -8 -5 -18 -6 -22 -4 -16 10 -20 -28 -4 -44 23 -23 38
-4 44 58 4 41 8 50 21 45 12 -3 21 7 35 40 18 45 16 95 -5 95 -6 0 -7 -5 -4
-10z"/>
<path d="M2350 2675 c0 -12 24 -55 32 -55 11 0 10 4 -4 35 -9 21 -28 35 -28
20z"/>
<path d="M645 2617 c-37 -44 -64 -85 -59 -90 4 -4 1 -13 -6 -22 -7 -8 -8 -15
-2 -15 15 0 82 -141 89 -187 3 -24 10 -43 15 -43 4 0 6 10 4 23 -14 66 -16 96
-6 102 13 8 13 36 -1 33 -12 -3 -20 8 -45 65 -13 30 -14 43 -6 63 16 33 6 31
-13 -3 -15 -27 -16 -27 -9 -3 6 25 43 67 55 63 3 -1 6 5 6 13 0 17 -8 18 -22
1z"/>
<path d="M2210 2596 c0 -8 14 -23 30 -33 17 -9 30 -21 30 -25 0 -4 11 -8 25
-8 20 0 25 -5 25 -26 0 -38 -31 -84 -60 -90 -14 -3 -35 -10 -48 -15 -32 -13
-62 -11 -62 3 0 9 -3 9 -11 1 -48 -48 108 -27 178 24 24 18 33 33 38 67 8 49
-1 78 -16 55 -7 -12 -9 -12 -9 0 0 11 -3 11 -15 1 -11 -9 -15 -9 -15 -1 0 7
-4 9 -10 6 -6 -3 -7 1 -4 10 4 11 -4 19 -30 30 -44 18 -46 18 -46 1z"/>
<path d="M2152 2568 c6 -18 15 -38 20 -45 7 -8 3 -24 -12 -48 -12 -19 -19 -41
-17 -48 4 -8 6 -8 6 3 1 8 13 24 28 36 26 21 26 22 11 55 -9 19 -18 43 -20 53
-1 11 -9 21 -15 23 -10 4 -10 -3 -1 -29z"/>
<path d="M2023 2500 c4 -18 7 -36 7 -40 0 -4 6 -10 13 -13 21 -8 17 43 -6 66
l-20 20 6 -33z"/>
<path d="M983 2450 c8 -14 22 -24 31 -22 9 2 16 -2 16 -8 0 -6 5 -8 10 -5 6 3
10 2 10 -3 0 -5 6 -9 14 -9 29 0 3 27 -32 33 -21 4 -43 14 -51 23 -8 10 -8 7
2 -9z"/>
<path d="M1987 2417 c-3 -9 1 -18 8 -21 8 -3 12 -12 9 -21 -3 -8 -1 -15 5 -15
15 0 13 19 -3 49 -10 19 -14 20 -19 8z"/>
<path d="M2170 2344 c0 -22 50 -49 93 -51 26 -1 47 0 47 2 0 9 -56 32 -67 28
-7 -3 -23 3 -35 11 -24 17 -38 20 -38 10z"/>
<path d="M895 2302 c-22 -4 -55 -30 -55 -43 0 -14 39 -20 59 -10 22 12 102
-11 122 -35 6 -8 19 -14 28 -14 21 0 81 60 81 80 -1 8 -8 3 -16 -12 -8 -16
-20 -29 -27 -29 -40 -5 -55 -2 -82 17 -48 34 -88 51 -110 46z"/>
<path d="M2124 2264 c3 -9 6 -24 6 -35 0 -20 54 -54 70 -44 6 3 10 1 10 -5 0
-6 5 -8 10 -5 19 12 10 24 -22 33 -23 5 -37 17 -47 40 -15 32 -39 46 -27 16z"/>
<path d="M704 2218 c-4 -6 -3 -8 3 -5 6 4 22 -7 37 -23 14 -17 31 -31 36 -31
6 -1 15 -2 21 -3 16 -1 19 -74 4 -80 -9 -3 -38 -81 -40 -106 0 -3 -10 -21 -22
-40 -18 -30 -20 -42 -12 -83 4 -26 14 -57 20 -70 7 -12 11 -23 10 -25 -1 -1 3
-10 8 -20 8 -13 9 -8 4 18 -3 19 -9 36 -12 38 -4 1 -5 20 -3 42 3 30 8 40 20
38 12 -2 18 14 28 70 7 40 17 78 23 85 5 7 6 18 2 25 -4 7 -5 32 -1 56 9 59 2
72 -55 101 -57 28 -61 29 -71 13z"/>
<path d="M2040 2158 c-24 -39 -28 -72 -5 -42 8 10 15 23 15 28 0 5 7 18 17 28
10 11 12 18 4 18 -6 0 -20 -15 -31 -32z"/>
<path d="M958 2158 c5 -7 11 -21 13 -32 3 -14 7 -11 16 13 11 30 10 31 -14 31
-19 0 -23 -3 -15 -12z"/>
<path d="M1022 2111 c2 -19 8 -36 14 -38 7 -2 10 6 7 22 -3 14 -1 25 3 25 15
0 65 -36 59 -42 -3 -3 6 -8 20 -10 16 -3 25 -1 25 7 0 21 25 36 38 23 6 -6 22
-8 38 -4 19 5 24 10 16 18 -6 6 -8 17 -5 24 3 8 1 14 -5 14 -5 0 -13 -7 -16
-16 -5 -12 -14 -15 -35 -11 -23 5 -30 2 -33 -10 -3 -15 -5 -15 -21 1 -12 12
-26 16 -42 12 -18 -5 -23 -3 -19 8 4 10 -2 14 -21 12 -23 -1 -26 -5 -23 -35z"/>
<path d="M905 2121 c-3 -6 -4 -15 -1 -20 3 -5 -5 -20 -19 -35 -30 -32 -17 -43
19 -15 19 15 25 27 21 46 -5 31 -11 38 -20 24z"/>
<path d="M1267 2093 c3 -10 11 -22 17 -28 6 -5 11 -16 11 -24 0 -8 6 -16 13
-19 7 -2 10 2 6 12 -3 9 -1 16 5 16 9 0 9 5 1 20 -6 11 -7 20 -3 20 16 0 -23
20 -39 20 -12 0 -16 -5 -11 -17z"/>
<path d="M1267 1983 c5 -12 1 -14 -18 -7 -23 7 -43 7 -102 0 -47 -6 -45 -18 3
-15 44 3 69 -12 33 -19 -39 -8 -37 -22 2 -16 22 3 42 10 45 14 3 5 12 10 20
12 15 3 40 23 40 31 0 3 -7 7 -14 10 -11 4 -13 1 -9 -10z"/>
<path d="M1953 1972 c-6 -11 -8 -24 -3 -31 5 -9 12 -4 23 18 17 35 1 45 -20
13z"/>
<path d="M971 1944 c-1 -21 -37 -44 -69 -44 -20 -1 -68 -26 -64 -34 6 -14 1
-26 -10 -26 -22 0 -16 -138 7 -183 24 -44 97 -138 103 -132 3 3 -11 24 -30 47
-19 24 -40 53 -47 66 -10 19 -15 91 -12 179 1 27 58 66 119 83 23 6 44 15 47
20 3 6 15 10 26 10 12 0 19 5 17 11 -2 6 -7 10 -11 10 -4 -1 -16 -1 -27 -1
-11 0 -20 -7 -20 -15 0 -23 -18 -18 -23 8 -4 20 -4 21 -6 1z"/>
<path d="M990 1748 c0 -4 -7 -8 -15 -8 -31 0 -65 -23 -64 -44 l0 -21 10 21
c11 22 69 30 101 13 23 -13 53 2 54 27 0 18 -5 21 -43 20 -24 0 -43 -4 -43 -8z"/>
<path d="M2530 1499 c-25 -12 -52 -25 -60 -29 -8 -4 -15 -14 -15 -22 0 -15
-58 -76 -180 -189 -28 -26 -59 -57 -70 -70 -54 -64 -58 -70 -46 -82 14 -14 15
-30 1 -22 -5 3 -10 -3 -10 -14 0 -12 -4 -21 -10 -21 -5 0 -10 -7 -10 -15 0 -8
-4 -15 -8 -15 -4 0 -16 -20 -26 -44 -10 -25 -25 -47 -34 -51 -8 -3 -12 -8 -9
-11 3 -3 -7 -30 -24 -60 -16 -30 -25 -54 -21 -54 4 -1 -3 -9 -16 -20 -13 -10
-23 -21 -22 -24 1 -22 -2 -27 -13 -23 -8 3 -14 -1 -14 -9 0 -7 5 -11 11 -7 6
3 -3 -9 -21 -26 -18 -17 -36 -31 -42 -31 -5 0 -14 -7 -19 -16 -5 -8 -17 -17
-28 -18 -10 -2 -18 -9 -16 -15 3 -13 -86 -56 -95 -47 -4 3 -12 1 -19 -5 -8 -7
-14 -7 -19 1 -9 14 -35 -6 -35 -26 0 -8 -7 -14 -15 -14 -8 0 -15 -5 -15 -11 0
-6 -7 -9 -15 -5 -8 3 -15 2 -15 -2 0 -4 -18 -18 -39 -32 -22 -13 -43 -35 -46
-48 -5 -19 -11 -23 -27 -19 -15 4 -18 3 -10 -5 13 -13 4 -38 -14 -38 -8 0 -14
-6 -14 -14 0 -8 -6 -16 -13 -19 -10 -4 -13 2 -9 19 3 15 0 24 -9 24 -7 0 -10
3 -6 6 3 4 0 19 -9 35 -8 16 -12 29 -8 29 4 0 1 6 -5 14 -21 25 -20 108 0 137
10 14 16 29 13 32 -3 2 2 31 10 63 26 100 3 324 -35 345 -22 11 -34 -17 -17
-39 11 -13 10 -15 -6 -9 -15 6 -17 4 -11 -10 14 -35 23 -80 36 -174 11 -87 10
-101 -5 -140 -23 -57 -29 -185 -10 -222 15 -27 32 -103 39 -166 3 -25 1 -31
-8 -22 -6 6 -16 11 -22 11 -5 0 -3 -5 5 -10 8 -5 10 -10 3 -10 -6 0 -9 -9 -6
-20 3 -11 0 -20 -6 -20 -6 0 -11 -10 -11 -23 0 -12 -9 -28 -21 -35 -11 -7 -18
-19 -15 -27 3 -8 1 -17 -3 -20 -11 -6 -21 -45 -13 -45 10 0 42 59 42 75 0 7 3
15 8 17 4 2 34 46 67 98 69 110 66 106 125 173 33 37 67 60 128 89 46 22 99
42 117 45 23 4 60 27 108 68 66 56 77 72 125 171 60 123 75 148 227 383 49 75
298 331 323 331 6 0 12 5 12 10 0 14 -9 12 -60 -11z"/>
<path d="M1770 1499 c0 -6 -8 -8 -17 -5 -17 6 -17 5 0 -8 18 -14 11 -26 -25
-39 -11 -4 -15 -12 -12 -21 5 -13 11 -10 32 14 23 26 40 70 27 70 -3 0 -5 -5
-5 -11z"/>
<path d="M1240 1470 c-22 -14 2 -27 47 -26 36 1 59 21 26 22 -10 0 -27 3 -38
7 -11 4 -27 2 -35 -3z"/>
<path d="M995 1388 c1 -26 6 -42 13 -41 6 2 9 -4 6 -12 -7 -17 4 -19 26 -5 13
9 12 12 -4 25 -16 12 -17 17 -6 30 9 11 9 15 1 15 -7 0 -9 5 -5 12 5 7 3 8 -6
3 -7 -4 -15 -2 -20 5 -4 6 -6 -8 -5 -32z"/>
<path d="M1592 1387 c-6 -7 -7 -19 -3 -26 7 -11 14 -10 35 4 14 10 26 20 26
24 0 12 -48 11 -58 -2z"/>
<path d="M1550 1351 c0 -11 -4 -23 -10 -26 -6 -3 -7 1 -4 9 8 20 -1 20 -37 -1
-30 -18 -40 -40 -14 -29 8 3 15 1 15 -4 0 -6 18 2 40 16 40 27 53 54 25 54 -8
0 -15 -9 -15 -19z"/>
<path d="M1331 1330 c-2 -19 -52 -43 -64 -31 -11 11 -38 3 -49 -13 -4 -6 -2
-14 5 -18 9 -6 9 -8 -1 -8 -8 0 -16 9 -19 20 -6 21 -43 29 -43 9 0 -6 7 -8 16
-5 10 4 14 1 12 -6 -3 -8 -23 -13 -51 -13 -28 0 -46 4 -44 10 2 5 9 11 15 11
7 1 17 2 23 3 5 0 8 5 4 10 -3 5 -17 8 -31 5 -14 -3 -32 0 -40 7 -18 15 -45 4
-38 -15 3 -9 9 -15 12 -14 20 2 32 -4 32 -16 0 -23 113 -38 160 -22 28 10 40
10 44 2 2 -6 5 -3 5 6 1 10 9 17 21 17 11 1 28 1 38 2 9 0 26 12 36 26 l19 26
-26 -5 c-18 -4 -27 0 -30 11 -4 13 -5 13 -6 1z"/>
<path d="M1361 1208 c4 -24 8 -49 9 -56 0 -7 4 -11 9 -8 10 7 -3 84 -17 98 -6
6 -7 -5 -1 -34z"/>
<path d="M1343 1113 c-3 -10 -9 -22 -12 -28 -3 -5 6 -3 19 6 13 9 26 21 28 27
6 19 -28 14 -35 -5z"/>
<path d="M1345 1070 c-16 -16 -33 -30 -39 -30 -5 0 -1 6 10 14 16 12 17 17 6
28 -11 11 -16 10 -28 -7 -14 -18 -13 -22 7 -38 22 -18 23 -17 42 13 10 16 23
27 28 24 5 -3 9 2 9 10 0 21 -2 21 -35 -14z"/>
<path d="M2901 993 c-1 -25 17 -38 69 -47 35 -7 35 -7 10 8 -14 9 -33 15 -43
16 -10 0 -22 10 -27 23 l-9 22 0 -22z"/>
<path d="M2897 869 c-4 -30 -7 -70 -6 -89 0 -31 1 -32 9 -12 5 12 7 29 4 37
-3 8 -1 30 6 49 7 22 8 41 2 52 -7 12 -11 2 -15 -37z"/>
<path d="M2209 852 c-29 -3 -73 -42 -48 -42 8 0 27 7 43 15 25 13 27 13 22 0
-4 -12 -2 -13 13 -6 19 11 81 -6 81 -21 0 -4 6 -5 14 -2 7 3 20 -6 29 -20 9
-13 31 -27 49 -31 39 -9 58 -22 54 -38 -1 -7 -1 -9 1 -5 3 5 13 3 24 -3 11 -5
17 -14 14 -19 -4 -6 1 -7 11 -3 12 4 15 3 10 -5 -6 -11 5 -17 26 -13 5 0 7 -4
5 -11 -1 -7 4 -13 11 -14 6 -1 18 -2 25 -3 7 -1 5 -6 -6 -12 -9 -6 -15 -14
-12 -20 9 -14 19 -11 33 12 12 19 10 24 -22 51 -131 108 -310 198 -377 190z"/>
<path d="M2104 755 c-18 -44 -18 -50 2 -31 8 9 12 21 8 28 -5 8 -2 9 9 5 11
-4 17 -1 17 9 0 9 5 12 13 8 6 -4 8 -3 4 1 -18 20 -39 12 -53 -20z"/>
<path d="M959 748 c-1 -2 -3 -25 -4 -53 -5 -73 20 -173 50 -201 14 -13 25 -30
25 -39 0 -19 14 -19 30 0 10 12 5 23 -29 61 -52 59 -59 130 -19 187 11 15 19
30 17 31 -6 5 -69 18 -70 14z"/>
<path d="M2208 723 c-27 -14 -46 -28 -43 -31 2 -3 10 0 17 6 7 6 18 11 23 13
6 1 24 11 40 21 46 28 16 21 -37 -9z"/>
<path d="M2246 658 c5 -8 1 -9 -12 -4 -15 5 -16 4 -7 -5 6 -6 9 -19 5 -28 -5
-14 -4 -14 11 1 19 18 23 48 6 48 -5 0 -7 -5 -3 -12z"/>
<path d="M2617 614 c-3 -4 -2 -14 3 -24 5 -10 6 -20 3 -24 -3 -3 -1 -6 5 -6 7
0 12 -6 12 -14 0 -9 -7 -12 -19 -9 -10 3 -21 1 -24 -4 -3 -5 7 -8 21 -7 17 0
28 7 30 17 5 23 19 21 27 -2 4 -12 12 -18 21 -14 9 3 14 -1 14 -12 0 -9 4 -14
9 -10 5 3 12 -4 16 -15 8 -26 21 -26 21 0 0 11 -4 20 -9 20 -5 0 -32 25 -60
55 -50 55 -58 61 -70 49z"/>
<path d="M1105 428 c3 -13 10 -40 15 -61 4 -21 16 -44 26 -52 33 -25 45 -15
21 16 -7 9 -18 14 -26 11 -8 -3 -11 0 -7 7 4 6 15 11 24 11 12 0 14 3 5 8 -10
7 -10 12 1 27 13 18 14 18 42 -2 48 -33 54 -35 48 -19 -11 28 -66 54 -101 49
-26 -4 -33 -2 -33 11 0 9 -5 16 -11 16 -7 0 -9 -8 -4 -22z"/>
</g>
</svg>
